<?xml version="1.0" standalone="no"?>
<!DOCTYPE svg PUBLIC "-//W3C//DTD SVG 20010904//EN"
 "http://www.w3.org/TR/2001/REC-SVG-20010904/DTD/svg10.dtd">
<svg version="1.0" xmlns="http://www.w3.org/2000/svg"
 width="558.000000pt" height="558.000000pt" viewBox="0 0 558.000000 558.000000"
 preserveAspectRatio="xMidYMid meet">
<metadata>
Created by potrace 1.14, written by Peter Selinger 2001-2017
</metadata>
<g transform="translate(0.000000,558.000000) scale(0.100000,-0.100000)"
fill="#000000" stroke="none">
<path d="M2647 5324 c-1 -1 -39 -5 -84 -8 -45 -4 -90 -8 -100 -10 -10 -2 -40
-7 -67 -10 -298 -40 -642 -169 -934 -350 -201 -125 -446 -338 -594 -516 -144
-174 -274 -385 -371 -600 -82 -183 -158 -445 -182 -627 -24 -188 -26 -220 -26
-378 -1 -156 2 -199 27 -375 72 -507 319 -1001 682 -1368 135 -136 167 -165
277 -248 387 -292 836 -465 1300 -501 111 -9 301 -9 420 0 101 7 127 10 225
28 101 17 114 20 205 44 864 231 1537 895 1773 1750 65 235 86 391 87 645 0
275 -9 365 -61 592 -139 613 -519 1160 -1049 1515 -318 213 -700 356 -1060
397 -27 3 -72 9 -100 12 -44 6 -363 13 -368 8z m318 -218 c112 -8 158 -14 294
-41 398 -77 829 -309 1131 -607 323 -319 559 -747 636 -1158 3 -14 10 -45 15
-69 5 -24 12 -69 15 -100 3 -31 9 -79 13 -106 11 -73 5 -376 -8 -475 -60 -442
-226 -832 -498 -1168 -206 -254 -488 -478 -773 -614 -124 -59 -148 -69 -265
-108 -299 -102 -593 -139 -918 -116 -53 4 -105 9 -115 10 -9 2 -37 7 -62 11
-25 4 -54 9 -65 11 -11 3 -35 7 -54 10 -120 20 -399 118 -546 192 -245 123
-523 338 -702 544 -204 234 -367 529 -462 834 -33 107 -34 110 -56 219 -19 97
-24 129 -32 210 -10 89 -10 401 -1 480 16 123 19 143 44 255 218 988 1067
1719 2074 1786 52 4 96 7 97 8 3 2 152 -3 238 -8z"/>
<path d="M2108 4215 c-2 -2 -34 -5 -72 -9 -439 -41 -711 -285 -720 -646 -4
-128 16 -220 68 -325 102 -204 295 -334 671 -452 464 -145 583 -194 684 -278
111 -93 149 -175 146 -311 -7 -260 -163 -426 -461 -488 -102 -21 -298 -19
-390 4 -269 69 -464 294 -500 575 -3 22 -7 41 -9 43 -3 3 -126 5 -244 3 l-44
-1 7 -73 c36 -411 373 -742 829 -814 23 -4 103 -7 177 -6 493 2 830 232 905
618 22 111 14 283 -18 377 -31 91 -82 173 -144 235 l-46 45 59 59 c32 32 61
59 64 59 3 0 20 -26 38 -57 18 -32 43 -76 57 -98 13 -22 31 -52 40 -67 8 -15
166 -283 350 -595 l336 -568 179 -1 c131 -1 178 2 173 10 -3 6 -34 56 -68 111
-116 187 -801 1300 -855 1388 l-54 88 45 46 c24 26 49 52 54 58 11 13 130 146
210 235 28 31 82 91 120 134 39 44 81 91 95 105 14 14 59 64 100 111 41 47 80
90 85 96 6 6 44 48 85 95 41 46 84 93 95 105 11 11 53 57 93 102 l74 82 -190
0 c-105 0 -192 -4 -194 -9 -1 -5 -43 -53 -93 -106 -49 -54 -99 -108 -110 -120
-19 -22 -145 -160 -194 -214 -13 -14 -47 -51 -75 -82 -28 -30 -85 -93 -126
-139 -41 -46 -88 -97 -104 -114 -81 -88 -115 -126 -155 -171 -46 -51 -185
-205 -277 -305 -28 -30 -59 -65 -70 -77 -19 -21 -19 -21 -59 -3 -69 32 -195
77 -335 120 -483 149 -608 216 -700 375 -54 92 -59 229 -12 334 61 135 225
232 432 256 293 33 520 -53 649 -245 42 -64 77 -156 87 -232 4 -27 12 -48 18
-49 17 -1 186 -1 234 0 l44 1 -7 63 c-10 86 -40 199 -70 266 -51 110 -144 227
-235 294 -103 75 -297 143 -440 153 -89 6 -229 12 -232 9z"/>
</g>
</svg>
