<svg id="Layer_1" data-name="Layer 1" xmlns="http://www.w3.org/2000/svg" viewBox="0 0 124.9 47.02"><defs><style>.cls-1{fill:none;stroke:#939598;stroke-width:2px;}.cls-2{fill:#231f20;}</style></defs><title>Picture logo</title><path class="cls-1" d="M56.56,25A22.51,22.51,0,1,1,34.05,2.49,22.51,22.51,0,0,1,56.56,25Z" transform="translate(-10.54 -1.49)"/><path class="cls-2" d="M63.48,19.56a2.94,2.94,0,0,0,.25,1,2.54,2.54,0,0,0,.57.8,2.44,2.44,0,0,0,.83.52,2.76,2.76,0,0,0,1.05.19,4.46,4.46,0,0,0,1-.11A2.71,2.71,0,0,0,68,21.6a1.85,1.85,0,0,0,.57-.64,2,2,0,0,0,.21-.95,1.3,1.3,0,0,0-.23-.77,2,2,0,0,0-.61-.55,4.29,4.29,0,0,0-.86-.4l-1-.32c-.28-.07-.55-.16-.83-.25a7,7,0,0,1-.8-.32,5.07,5.07,0,0,1-.72-.4,2.62,2.62,0,0,1-.57-.53,2.29,2.29,0,0,1-.39-.7,2.55,2.55,0,0,1-.15-.91,2.5,2.5,0,0,1,.25-1.12,2.31,2.31,0,0,1,.7-.82,3.17,3.17,0,0,1,1.08-.5,5,5,0,0,1,1.37-.17,4.63,4.63,0,0,1,1.18.13,3.68,3.68,0,0,1,.9.36,2.59,2.59,0,0,1,.64.53,2.87,2.87,0,0,1,.43.64,2.55,2.55,0,0,1,.25.7,3.29,3.29,0,0,1,.1.68H68.44a2.48,2.48,0,0,0-.24-.9,2.23,2.23,0,0,0-.52-.65,2.19,2.19,0,0,0-.74-.39,2.86,2.86,0,0,0-.89-.14,3.93,3.93,0,0,0-.84.09,2.42,2.42,0,0,0-.74.28,1.52,1.52,0,0,0-.53.51,1.45,1.45,0,0,0-.2.77,1.32,1.32,0,0,0,.23.8,2.16,2.16,0,0,0,.6.56,5,5,0,0,0,.87.4l1,.33.82.26c.28.1.54.2.8.32a4,4,0,0,1,.7.4,2.58,2.58,0,0,1,.57.52,2.14,2.14,0,0,1,.38.68,2.62,2.62,0,0,1,.14.88,3.05,3.05,0,0,1-.28,1.32,2.6,2.6,0,0,1-.77.94,3.24,3.24,0,0,1-1.16.58,5.28,5.28,0,0,1-1.47.19,4.16,4.16,0,0,1-1.4-.24,3.92,3.92,0,0,1-1.21-.7,3.37,3.37,0,0,1-1.21-2.54Z" transform="translate(-10.54 -1.49)"/><path class="cls-2" d="M73.28,12.53V17h5.55V12.53h1.09V22.75H78.83V18H73.28v4.8H72.19V12.53Z" transform="translate(-10.54 -1.49)"/><path class="cls-2" d="M87.52,12.53l3.71,10.22H90.1L88.93,19.5H84.58L83.4,22.75H82.28L86,12.53Zm-.76,1-1.88,5.14h3.75Z" transform="translate(-10.54 -1.49)"/><path class="cls-2" d="M100.83,15.44a3.2,3.2,0,0,1-.09.75,2.91,2.91,0,0,1-.27.69,2.62,2.62,0,0,1-.45.6,3.26,3.26,0,0,1-.62.47,1.58,1.58,0,0,1,.65.31,1.48,1.48,0,0,1,.39.48,1.93,1.93,0,0,1,.2.6,3.52,3.52,0,0,1,.06.66v1.54a2.3,2.3,0,0,0,.09.64,2.43,2.43,0,0,0,.23.57H99.84a.81.81,0,0,1-.11-.27,2.82,2.82,0,0,1-.07-.31l0-.31V20a2,2,0,0,0-.1-.58,1.4,1.4,0,0,0-.33-.51,1.42,1.42,0,0,0-.58-.37,2.48,2.48,0,0,0-.87-.14H94.66v4.38H93.58V12.53h4.17a3.2,3.2,0,0,1,1.32.26,3,3,0,0,1,1,.68,2.68,2.68,0,0,1,.59.93A2.74,2.74,0,0,1,100.83,15.44Zm-6.17,2h3.09a1.94,1.94,0,0,0,.76-.15,2.32,2.32,0,0,0,.64-.43,2.13,2.13,0,0,0,.43-.63,1.83,1.83,0,0,0,.16-.77,1.87,1.87,0,0,0-.15-.76,1.78,1.78,0,0,0-1-1,2.26,2.26,0,0,0-.79-.14H94.66Z" transform="translate(-10.54 -1.49)"/><path class="cls-2" d="M106.9,21.33l2.92-8.8H111l-3.4,10.22h-1.36l-3.47-10.22H104Z" transform="translate(-10.54 -1.49)"/><path class="cls-2" d="M117.71,12.53l3.71,10.22h-1.13l-1.18-3.25h-4.34l-1.18,3.25h-1.12l3.74-10.22Zm-.76,1-1.88,5.14h3.74Z" transform="translate(-10.54 -1.49)"/><path class="cls-2" d="M131,15.44a3.2,3.2,0,0,1-.09.75,2.91,2.91,0,0,1-.27.69,2.62,2.62,0,0,1-.45.6,3.26,3.26,0,0,1-.62.47,1.58,1.58,0,0,1,.65.31,1.62,1.62,0,0,1,.39.48,1.93,1.93,0,0,1,.2.6,3.53,3.53,0,0,1,0,.66v1.54a2.31,2.31,0,0,0,.1.64,2.43,2.43,0,0,0,.23.57H130a1.11,1.11,0,0,1-.12-.27l-.06-.31,0-.31c0-.1,0-.19,0-.26V20a2,2,0,0,0-.09-.58,1.4,1.4,0,0,0-.33-.51,1.42,1.42,0,0,0-.58-.37,2.48,2.48,0,0,0-.87-.14h-3.09v4.38h-1.08V12.53h4.17a3.2,3.2,0,0,1,1.32.26,3,3,0,0,1,1,.68,2.68,2.68,0,0,1,.59.93A2.74,2.74,0,0,1,131,15.44Zm-6.17,2h3.09a1.94,1.94,0,0,0,.76-.15,2.32,2.32,0,0,0,.64-.43,2.13,2.13,0,0,0,.43-.63,1.83,1.83,0,0,0,.16-.77,1.87,1.87,0,0,0-.15-.76,1.85,1.85,0,0,0-.42-.61,1.94,1.94,0,0,0-.63-.4,2.26,2.26,0,0,0-.79-.14h-3.09Z" transform="translate(-10.54 -1.49)"/><path class="cls-2" d="M135.1,12.53V22.75H134V12.53Z" transform="translate(-10.54 -1.49)"/><path class="cls-2" d="M64.05,27.13v5.23l5.21-5.23h1.42l-4,4,4.28,6.19H69.56l-3.67-5.42-1.84,1.82v3.6H63V27.13Z" transform="translate(-10.54 -1.49)"/><path class="cls-2" d="M74.28,27.13V34a2.67,2.67,0,0,0,.23,1.12,2.9,2.9,0,0,0,.6.84,2.84,2.84,0,0,0,.84.53,2.57,2.57,0,0,0,.94.18,3.23,3.23,0,0,0,1-.17,2.84,2.84,0,0,0,.9-.5,2.51,2.51,0,0,0,.65-.82A2.47,2.47,0,0,0,79.69,34V27.13h1.09V34a3.46,3.46,0,0,1-.16,1.09,3.26,3.26,0,0,1-.44.92,3.42,3.42,0,0,1-.65.72,4.18,4.18,0,0,1-2.63.95,3.85,3.85,0,0,1-.88-.11,3.7,3.7,0,0,1-.86-.32,3.48,3.48,0,0,1-.77-.52,2.88,2.88,0,0,1-.62-.72,3.36,3.36,0,0,1-.42-.92,4,4,0,0,1-.15-1.12V27.13Z" transform="translate(-10.54 -1.49)"/><path class="cls-2" d="M84.84,27.13v9.23H90v1H83.76V27.13Z" transform="translate(-10.54 -1.49)"/><path class="cls-2" d="M93.38,27.13v5.23l5.21-5.23H100l-4,4,4.28,6.19H98.89l-3.67-5.42-1.84,1.82v3.6H92.29V27.13Z" transform="translate(-10.54 -1.49)"/><path class="cls-2" d="M107.22,27.13l3.71,10.21h-1.12l-1.18-3.25h-4.35l-1.18,3.25H102l3.75-10.21Zm-.76,1-1.88,5.13h3.75Z" transform="translate(-10.54 -1.49)"/><path class="cls-2" d="M120.6,30a2.64,2.64,0,0,1-.1.74,2.76,2.76,0,0,1-.72,1.29,2.89,2.89,0,0,1-.62.47,1.71,1.71,0,0,1,.65.31,1.41,1.41,0,0,1,.39.49,1.72,1.72,0,0,1,.2.59,3.68,3.68,0,0,1,.06.66v1.55a2.3,2.3,0,0,0,.09.64,3.13,3.13,0,0,0,.23.56H119.6a.68.68,0,0,1-.11-.26c0-.1,0-.21-.07-.31s0-.22,0-.31V34.57a1.91,1.91,0,0,0-.1-.58,1.33,1.33,0,0,0-.32-.52,1.8,1.8,0,0,0-.59-.37,2.49,2.49,0,0,0-.87-.13h-3.09v4.37h-1.08V27.13h4.17a3.05,3.05,0,0,1,1.32.26,3,3,0,0,1,1,.67,2.81,2.81,0,0,1,.59.94A2.72,2.72,0,0,1,120.6,30Zm-6.18,2h3.09a2,2,0,0,0,.76-.16,2.09,2.09,0,0,0,.64-.42,2,2,0,0,0,.43-.63,1.85,1.85,0,0,0,.16-.78,1.91,1.91,0,0,0-.15-.76,1.78,1.78,0,0,0-.41-.6,1.83,1.83,0,0,0-.64-.4,2,2,0,0,0-.79-.14h-3.09Z" transform="translate(-10.54 -1.49)"/><path class="cls-2" d="M125,27.13l5.2,8.83V27.13h1.08V37.34H129.8l-5.2-8.82v8.82h-1.08V27.13Z" transform="translate(-10.54 -1.49)"/><path class="cls-2" d="M135.44,27.13V37.34h-1.08V27.13Z" transform="translate(-10.54 -1.49)"/><path class="cls-2" d="M48.43,12H45L33.36,24.77l-.08,0A18.26,18.26,0,0,0,31.36,24c-.67-.22-1.33-.44-2-.64-.84-.26-1.65-.52-2.43-.79a10.75,10.75,0,0,1-2.1-1,4.91,4.91,0,0,1-1.47-1.35,3.34,3.34,0,0,1-.55-1.92,3.43,3.43,0,0,1,.49-1.86,3.74,3.74,0,0,1,1.27-1.23,5.89,5.89,0,0,1,1.79-.68,10,10,0,0,1,2.05-.21,6.89,6.89,0,0,1,2.14.32,5.21,5.21,0,0,1,1.77.95,4.9,4.9,0,0,1,1.26,1.58,5.6,5.6,0,0,1,.59,2.17h2.69a10.22,10.22,0,0,0-.24-1.66A6.91,6.91,0,0,0,36,16a7.65,7.65,0,0,0-1-1.55,6,6,0,0,0-1.56-1.28,7.86,7.86,0,0,0-2.16-.87A11.51,11.51,0,0,0,28.42,12a12.36,12.36,0,0,0-3.32.42,7.91,7.91,0,0,0-2.6,1.21,5.51,5.51,0,0,0-1.69,2,5.8,5.8,0,0,0-.61,2.72,6.31,6.31,0,0,0,.35,2.18,5.85,5.85,0,0,0,.94,1.7,6.4,6.4,0,0,0,1.4,1.29,11.54,11.54,0,0,0,1.73,1,19.35,19.35,0,0,0,1.93.76c.66.23,1.33.43,2,.62s1.57.49,2.34.76a9.92,9.92,0,0,1,2.07,1,5,5,0,0,1,1.47,1.32A3.14,3.14,0,0,1,35,30.73,4.75,4.75,0,0,1,34.47,33a4.36,4.36,0,0,1-1.38,1.54,5.93,5.93,0,0,1-2,.87,10.25,10.25,0,0,1-2.37.27,7,7,0,0,1-2.54-.45,5.92,5.92,0,0,1-2-1.26,6.38,6.38,0,0,1-1.36-1.92,6.69,6.69,0,0,1-.61-2.44H19.5a8,8,0,0,0,.84,3.51,8.26,8.26,0,0,0,2.07,2.64,9.15,9.15,0,0,0,2.93,1.68,9.75,9.75,0,0,0,3.38.6,12.86,12.86,0,0,0,3.55-.47,8.45,8.45,0,0,0,2.82-1.39,6.55,6.55,0,0,0,1.85-2.29,7.29,7.29,0,0,0,.66-3.18,6.35,6.35,0,0,0-.33-2.13A5.51,5.51,0,0,0,36.36,27a6.58,6.58,0,0,0-.88-.87l1.22-1.2L44.43,38h3.33L38.53,23Z" transform="translate(-10.54 -1.49)"/></svg>